<svg width="12" height="12" viewBox="0 0 12 12" fill="none" xmlns="http://www.w3.org/2000/svg">
<path d="M0.640165 0.109835C0.493718 -0.0366117 0.256282 -0.0366117 0.109835 0.109835C-0.0366117 0.256282 -0.0366117 0.493718 0.109835 0.640165L2.73397 3.26429C1.47783 4.11885 0.542547 5.45538 0.210131 7.0484C0.167825 7.25114 0.297883 7.44979 0.500623 7.49209C0.703362 7.5344 0.902011 7.40434 0.944317 7.2016C1.24717 5.75024 2.11775 4.54718 3.27535 3.80567L4.46502 4.99534C3.80473 5.47208 3.375 6.24836 3.375 7.125C3.375 8.57475 4.55025 9.75 6 9.75C6.87664 9.75 7.65292 9.32028 8.12967 8.65998L11.3598 11.8902C11.5063 12.0366 11.7437 12.0366 11.8902 11.8902C12.0366 11.7437 12.0366 11.5063 11.8902 11.3598L0.640165 0.109835ZM7.58958 8.11989C7.25801 8.64853 6.67005 9 6 9C4.96447 9 4.125 8.16053 4.125 7.125C4.125 6.45495 4.47647 5.86699 5.00511 5.53543L7.58958 8.11989ZM6.09261 4.5016L8.6234 7.03239C8.57569 5.65627 7.46873 4.54932 6.09261 4.5016ZM6.00001 3C5.57262 3 5.15362 3.05515 4.75064 3.15964L4.14835 2.55734C4.73512 2.35748 5.35864 2.25 6.00001 2.25C8.77008 2.25 11.2069 4.25484 11.7899 7.04839C11.8322 7.25113 11.7021 7.44978 11.4994 7.49209C11.2967 7.5344 11.098 7.40435 11.0557 7.20161C10.5431 4.74516 8.40424 3 6.00001 3Z" fill="#00718A"/>
</svg>
